<?xml version="1.0" standalone="no"?><!DOCTYPE svg PUBLIC "-//W3C//DTD SVG 1.1//EN" "http://www.w3.org/Graphics/SVG/1.1/DTD/svg11.dtd"><svg t="1690256960417" class="icon" viewBox="0 0 1024 1024" version="1.1" xmlns="http://www.w3.org/2000/svg" p-id="9719" xmlns:xlink="http://www.w3.org/1999/xlink" width="200" height="200"><path d="M608.256 681.984l-61.44 24.576-8.192-65.536z" fill="#FFCC7C" p-id="9720"></path><path d="M987.136 202.752l-22.528-14.336 14.336-24.576c6.144-10.24 2.048-22.528-8.192-28.672 8.192-12.288 12.288-26.624 12.288-40.96 0-28.672-14.336-55.296-40.96-71.68-18.432-10.24-40.96-14.336-61.44-8.192-20.48 6.144-38.912 18.432-49.152 38.912-4.096-2.048-10.24-4.096-16.384-2.048-4.096 2.048-10.24 4.096-12.288 10.24l-131.072 225.28H40.96c-10.24 0-20.48 10.24-20.48 20.48v534.528c0 12.288 10.24 20.48 20.48 20.48h268.288V962.56c0 8.192 4.096 14.336 10.24 18.432 4.096 2.048 6.144 2.048 10.24 2.048s8.192-2.048 12.288-4.096l174.08-116.736H819.2c10.24 0 20.48-8.192 20.48-20.48V403.456l104.448-180.224 22.528 12.288s2.048 2.048 0 6.144c0 8.192-6.144 28.672-49.152 63.488-38.912 30.72-57.344 57.344-57.344 81.92 0 14.336 4.096 26.624 16.384 36.864 4.096 4.096 8.192 6.144 14.336 6.144 6.144 0 10.24-2.048 14.336-6.144 8.192-8.192 8.192-20.48 0-28.672-4.096-2.048-4.096-4.096-4.096-4.096 0-4.096 4.096-20.48 43.008-51.2 57.344-45.056 65.536-79.872 65.536-102.4-2.048-14.336-10.24-28.672-22.528-34.816zM798.72 821.248H507.904c-4.096 0-8.192 2.048-12.288 4.096l-145.408 100.352v-81.92c0-12.288-10.24-20.48-20.48-20.48H61.44V327.68h585.728l-153.6 266.24c-2.048 2.048-2.048 6.144-2.048 10.24v4.096l12.288 88.064H163.84c-10.24 0-20.48 10.24-20.48 20.48s10.24 20.48 20.48 20.48h346.112c0 6.144 4.096 12.288 10.24 14.336 4.096 2.048 6.144 2.048 10.24 2.048 2.048 0 4.096 0 8.192-2.048l120.832-49.152h2.048c2.048 0 2.048-2.048 4.096-2.048h2.048l2.048-2.048c2.048-2.048 2.048-2.048 2.048-4.096L798.72 475.136v346.112z m-260.096-180.224l69.632 38.912-59.392 24.576-10.24-63.488zM839.68 321.536l-40.96 71.68-151.552 264.192-34.816-20.48-71.68-40.96L694.272 327.68l24.576-40.96 108.544-188.416 71.68 40.96 34.816 20.48-94.208 161.792z m96.256-206.848l-71.68-40.96c6.144-10.24 14.336-16.384 24.576-18.432 4.096 0 6.144-2.048 10.24-2.048 8.192 0 14.336 2.048 20.48 6.144 20.48 10.24 26.624 34.816 16.384 55.296z" fill="#1C2754" p-id="9721"></path><path d="M798.72 475.136v346.112H501.76l-4.096 4.096-145.408 100.352v-81.92c0-12.288-10.24-20.48-20.48-20.48H61.44V327.68h585.728l-153.6 266.24c-2.048 2.048-2.048 6.144-2.048 10.24v4.096l12.288 88.064H163.84c-10.24 0-20.48 10.24-20.48 20.48s10.24 20.48 20.48 20.48h346.112c0 6.144 4.096 12.288 10.24 14.336 4.096 2.048 6.144 2.048 10.24 2.048 2.048 0 4.096 0 8.192-2.048l120.832-49.152h2.048c2.048 0 2.048-2.048 4.096-2.048h2.048l2.048-2.048c2.048-2.048 2.048-2.048 2.048-4.096L798.72 475.136z" fill="#FFCC7C" p-id="9722"></path><path d="M897.67936 139.89888l-84.992 147.21024-23.552 40.79616-178.176 308.61312-70.94272-40.96 154.624-267.81696 23.552-40.79616 108.544-188.0064z" fill="#B2C8FF" p-id="9723"></path><path d="M933.15072 160.37888l-93.184 161.3824-40.96 70.9632-152.576 264.27392-35.47136-20.48 178.176-308.61312 23.552-40.79616 84.992-147.21024z" fill="#B2C8FF" p-id="9724"></path><path d="M935.89504 114.66752l-70.94272-40.96c5.12-8.86784 13.78304-15.68768 24.9856-18.67776 2.78528-0.75776 7.3728-0.49152 10.15808-1.2288 7.3728-0.47104 13.7216 0.8192 20.80768 4.9152 19.49696 11.264 26.25536 36.4544 14.99136 55.95136z" fill="#789EFF" p-id="9725"></path><path d="M606.43328 681.20576l-59.2896 24.8832-8.11008-63.7952z" fill="#C1CDEB" p-id="9726"></path><path d="M490.94656 602.70592s-1.024 1.76128 0.75776 2.78528l0.73728 2.80576-1.49504-5.59104z" fill="#1C2754" p-id="9727"></path><path d="M163.84 450.56h225.28c12.288 0 20.48 8.192 20.48 20.48s-8.192 20.48-20.48 20.48H163.84c-12.288 0-20.48-8.192-20.48-20.48s8.192-20.48 20.48-20.48z" fill="#1C2754" p-id="9728"></path><path d="M163.84 573.44h225.28c12.288 0 20.48 8.192 20.48 20.48s-8.192 20.48-20.48 20.48H163.84c-12.288 0-20.48-8.192-20.48-20.48s8.192-20.48 20.48-20.48z" fill="#1C2754" p-id="9729"></path></svg>