<?xml version="1.0" standalone="no"?><!DOCTYPE svg PUBLIC "-//W3C//DTD SVG 1.1//EN" "http://www.w3.org/Graphics/SVG/1.1/DTD/svg11.dtd"><svg t="1689036297828" class="icon" viewBox="0 0 1185 1024" version="1.1" xmlns="http://www.w3.org/2000/svg" p-id="4811" xmlns:xlink="http://www.w3.org/1999/xlink" width="231.4453125" height="200"><path d="M1161.866509 476.052211a131.853474 131.853474 0 0 0-9.566315-10.778948L667.786509 29.696a101.322105 101.322105 0 0 0-143.333052 0L39.939773 465.273263c-69.847579 71.006316-45.675789 129.077895 53.706105 129.077895h48.02021c-0.943158 3.880421-1.562947 7.814737-1.562947 11.964631v305.556211c0 56.104421 45.702737 101.995789 101.591579 101.995789h177.367579a51.065263 51.065263 0 0 0 50.822737-51.038315l-0.296421-203.722106c0-70.063158 57.074526-127.380211 126.841263-127.38021 69.793684 0 126.868211 57.317053 126.86821 127.38021l0.296421 203.722106c0 28.079158 22.851368 51.038316 50.79579 51.038315h177.475368c55.834947 0 101.537684-45.891368 101.537685-101.968842V606.315789c0-4.149895-0.646737-8.084211-1.589895-11.964631h49.152c79.36 0 110.322526-55.915789 60.901052-118.298947" fill="#BA97DB" p-id="4812"></path></svg>