<?xml version="1.0" standalone="no"?><!DOCTYPE svg PUBLIC "-//W3C//DTD SVG 1.1//EN" "http://www.w3.org/Graphics/SVG/1.1/DTD/svg11.dtd"><svg t="1690257091719" class="icon" viewBox="0 0 1024 1024" version="1.1" xmlns="http://www.w3.org/2000/svg" p-id="12508" xmlns:xlink="http://www.w3.org/1999/xlink" width="200" height="200"><path d="M78.30625 670.5L20.20625 887.3l216.6-58.1c63.8 37 137.8 58.1 216.9 58.1 239.5 0 433.5-194.1 433.5-433.5 0-239.5-194.1-433.5-433.5-433.5-239.3 0-433.5 194.1-433.5 433.5 0 78.9 21.1 152.9 58.1 216.7z" fill="#33ABE3" p-id="12509"></path><path d="M20.20625 907.5c-5.3 0-10.4-2.1-14.3-5.9C0.80625 896.4-1.19375 889 0.70625 882l55.9-208.8C19.60625 606.4 0.00625 530.7 0.00625 453.7 0.00625 203.5 203.50625 0 453.70625 0s453.7 203.5 453.7 453.7-203.5 453.8-453.7 453.8c-77.1 0-152.8-19.6-219.6-56.6L25.50625 906.8c-1.8 0.4-3.5 0.7-5.3 0.7zM236.90625 809c3.5 0 7 0.9 10.1 2.7 62.5 36.2 134 55.3 206.7 55.3C681.60625 867 867.00625 681.6 867.00625 453.7S681.60625 40.4 453.70625 40.4 40.40625 225.8 40.40625 453.7c0 72.7 19.1 144.2 55.3 206.6 2.7 4.6 3.4 10.2 2 15.4l-49 182.9 182.8-49c1.8-0.4 3.6-0.6 5.4-0.6z" fill="#403F3F" p-id="12510"></path><path d="M487.80625 279.8H209.30625c-11.2 0-20.2-9-20.2-20.2s9.1-20.2 20.2-20.2h278.5c11.2 0 20.2 9 20.2 20.2s-9.1 20.2-20.2 20.2zM698.20625 409.2h-489c-11.2 0-20.2-9-20.2-20.2s9.1-20.2 20.2-20.2h489c11.2 0 20.2 9 20.2 20.2s-9 20.2-20.2 20.2zM698.20625 538.7h-489c-11.2 0-20.2-9-20.2-20.2s9.1-20.2 20.2-20.2h489c11.2 0 20.2 9 20.2 20.2 0 11.1-9 20.2-20.2 20.2zM698.20625 668.1h-489c-11.2 0-20.2-9-20.2-20.2s9.1-20.2 20.2-20.2h489c11.2 0 20.2 9 20.2 20.2 0 11.1-9 20.2-20.2 20.2z" fill="#FFFFFF" p-id="12511"></path><path d="M968.70625 872.8l35.1 131-130.9-35.1c-38.5 22.3-83.3 35.1-131 35.1-144.7 0-261.9-117.3-261.9-261.9C480.00625 597.2 597.30625 480 741.90625 480c144.6 0 261.9 117.3 261.9 261.9 0 47.6-12.8 92.4-35.1 130.9z" fill="#FFFFFF" p-id="12512"></path><path d="M1003.80625 1024c-1.7 0-3.5-0.2-5.2-0.7l-123-33c-40.9 22-86.9 33.7-133.7 33.7-155.6 0-282.2-126.6-282.2-282.2s126.6-282.2 282.2-282.2 282.2 126.6 282.2 282.2c0 46.8-11.6 92.8-33.7 133.7l33 123c1.9 7-0.1 14.4-5.2 19.5-4 3.9-9.1 6-14.4 6z m-262-523.9c-133.3 0-241.7 108.4-241.7 241.7s108.4 241.7 241.7 241.7c42.6 0 84.4-11.2 120.9-32.4 4.6-2.7 10.2-3.4 15.4-2l97.1 26-26-97.2c-1.4-5.2-0.7-10.7 2-15.4 21.2-36.5 32.4-78.3 32.4-120.8 0-133.2-108.5-241.6-241.8-241.6z" fill="#403F3F" p-id="12513"></path><path d="M588.60625 662.7h187.3" fill="#33ABE3" p-id="12514"></path><path d="M775.90625 682.9H588.60625c-11.2 0-20.2-9-20.2-20.2s9.1-20.2 20.2-20.2h187.2c11.2 0 20.2 9 20.2 20.2 0.1 11.2-9 20.2-20.1 20.2z" fill="#403F3F" p-id="12515"></path><path d="M588.60625 792.1h324.2" fill="#33ABE3" p-id="12516"></path><path d="M912.80625 812.3H588.60625c-11.2 0-20.2-9-20.2-20.2s9.1-20.2 20.2-20.2h324.2c11.2 0 20.2 9 20.2 20.2s-9 20.2-20.2 20.2z" fill="#403F3F" p-id="12517"></path></svg>