<?xml version="1.0" standalone="no"?><!DOCTYPE svg PUBLIC "-//W3C//DTD SVG 1.1//EN" "http://www.w3.org/Graphics/SVG/1.1/DTD/svg11.dtd"><svg t="1689037485732" class="icon" viewBox="0 0 1024 1024" version="1.1" xmlns="http://www.w3.org/2000/svg" p-id="37416" xmlns:xlink="http://www.w3.org/1999/xlink" width="200" height="200"><path d="M480.602 34.424L30.862 402.552v550.684c0 28.448 23.062 51.512 51.512 51.512h859.838c28.448 0 51.512-23.062 51.512-51.512V402.552L543.984 34.424c-18.434-15.088-44.948-15.088-63.382 0z" fill="#6770E6" p-id="37417"></path><path d="M819.544 104.62H205.04c-28.448 0-51.512 23.062-51.512 51.512V914.3h717.526V156.132c0.002-28.448-23.06-51.512-51.51-51.512z" fill="#69EBFC" p-id="37418"></path><path d="M819.544 104.62H205.04c-28.448 0-51.51 23.062-51.51 51.512v32.23c0-28.448 23.062-51.512 51.51-51.512h614.504c28.448 0 51.51 23.062 51.51 51.512V156.132c0.002-28.45-23.06-51.512-51.51-51.512z" fill="#A1F1FC" p-id="37419"></path><path d="M993.722 402.552v550.684c0 28.448-23.062 51.512-51.512 51.512H310.528l683.194-602.196z" fill="#D476E2" p-id="37420"></path><path d="M310.528 1004.748h451.696l-225.758-199.152z" fill="#B665C2" p-id="37421"></path><path d="M30.862 402.552v550.684c0 28.448 23.062 51.512 51.512 51.512h631.684L30.862 402.552z" fill="#D476E2" p-id="37422"></path><path d="M942.21 964.748H668.678l45.38 40h228.154c28.45 0 51.512-23.062 51.512-51.51v-39.986c-0.01 28.44-23.068 51.496-51.514 51.496z" fill="#B665C2" p-id="37423"></path><path d="M310.528 964.748H82.374c-28.45 0-51.51-23.062-51.51-51.51V402.554v550.684c0 28.448 23.062 51.51 51.51 51.51h631.684l-45.38-40H310.528z" fill="#B665C2" p-id="37424"></path><path d="M270.974 252.502v90.03a13.126 13.126 0 0 1-13.126 13.126h-2.216a13.126 13.126 0 0 1-13.126-13.126v-90.03h-26.252a13.126 13.126 0 1 1 0-26.252h80.972a13.126 13.126 0 1 1 0 26.252h-26.252zM402.428 342.532v-38.822h-52.504v38.822a13.126 13.126 0 0 1-13.126 13.126h-2.216a13.126 13.126 0 0 1-13.126-13.126v-103.156a13.126 13.126 0 0 1 13.126-13.126h2.216a13.126 13.126 0 0 1 13.126 13.126v38.082h52.504v-38.082a13.126 13.126 0 0 1 13.126-13.126h2.216a13.126 13.126 0 0 1 13.126 13.126v103.156a13.126 13.126 0 0 1-13.126 13.126h-2.216a13.126 13.126 0 0 1-13.126-13.126zM539.37 347.488l-8.5-20.854h-54.722l-8.5 20.854a13.126 13.126 0 0 1-12.156 8.172h-0.348c-9.41 0-15.762-9.608-12.078-18.266l42.548-99.99a19.846 19.846 0 1 1 36.528 0l42.548 99.99c3.684 8.658-2.67 18.266-12.078 18.266h-1.088a13.134 13.134 0 0 1-12.154-8.172z m-35.86-87.962l-17.192 41.966h34.386l-17.194-41.966zM662.772 349.278l-57.81-75.886v69.14a13.126 13.126 0 0 1-13.126 13.126h-1.848a13.126 13.126 0 0 1-13.126-13.126v-100.088a16.196 16.196 0 0 1 16.196-16.196h2.028a16.19 16.19 0 0 1 12.888 6.388l55.776 73.292v-66.552a13.126 13.126 0 0 1 13.126-13.126h1.848a13.126 13.126 0 0 1 13.126 13.126v100.088a16.198 16.198 0 0 1-16.196 16.196 16.202 16.202 0 0 1-12.882-6.382zM795.102 350.574l-36.414-50.008-14.974 15.532v26.434a13.126 13.126 0 0 1-13.126 13.126h-2.216a13.126 13.126 0 0 1-13.126-13.126v-103.156a13.126 13.126 0 0 1 13.126-13.126h2.216a13.126 13.126 0 0 1 13.126 13.126v43.444l48.836-52.62a12.36 12.36 0 0 1 9.06-3.952c10.89 0 16.46 13.062 8.92 20.92l-32.614 33.988 40.516 54.79c6.034 8.16 0.208 19.71-9.94 19.71h-3.396a12.356 12.356 0 0 1-9.994-5.082zM383.35 480.13v37.342a14.236 14.236 0 0 1-28.472 0v-36.79l-36.94-58.226c-5.544-8.74 0.734-20.158 11.084-20.158h1.934a13.128 13.128 0 0 1 11.284 6.42l27.058 45.528 27.598-45.616a13.128 13.128 0 0 1 11.232-6.332h0.986c10.368 0 16.644 11.456 11.062 20.194l-36.826 57.638zM721.116 501.02c-2.652 7.276-6.442 13.342-11.37 18.21-4.93 4.87-10.908 8.506-17.932 10.908-7.024 2.404-14.854 3.602-23.478 3.602-17.378 0-31.058-4.804-41.04-14.418-9.984-9.614-14.974-23.97-14.974-43.074v-60.822a13.126 13.126 0 0 1 13.126-13.126h2.216a13.126 13.126 0 0 1 13.126 13.126v60.082c0 10.6 2.464 18.578 7.394 23.94 4.928 5.362 11.768 8.042 20.52 8.042 8.75 0 15.59-2.588 20.522-7.764 4.928-5.178 7.394-12.942 7.394-23.294v-61.006a13.126 13.126 0 0 1 13.126-13.126h2.216a13.126 13.126 0 0 1 13.126 13.126v59.898c0.002 9.862-1.324 18.428-3.972 25.696z" fill="#FFFFFF" p-id="37425"></path><path d="M475.576 400.152c25.706-0.266 36.16 17.08 36.16 17.08s10.11-16.814 35.814-17.08c25.706-0.266 45.124 21.254 45.332 41.304 0.208 20.05-2.762 34.41-39.764 65.914-12.994 11.062-23.914 18.922-31.07 23.73a16.614 16.614 0 0 1-18.262 0.19c-7.252-4.658-18.334-12.29-31.554-23.08-37.646-30.728-40.914-45.026-41.122-65.074-0.208-20.054 18.76-42.718 44.466-42.984z" fill="#FF8354" p-id="37426"></path></svg>