<?xml version="1.0" standalone="no"?><!DOCTYPE svg PUBLIC "-//W3C//DTD SVG 1.1//EN" "http://www.w3.org/Graphics/SVG/1.1/DTD/svg11.dtd"><svg t="1689037790642" class="icon" viewBox="0 0 1024 1024" version="1.1" xmlns="http://www.w3.org/2000/svg" p-id="50218" xmlns:xlink="http://www.w3.org/1999/xlink" width="200" height="200"><path d="M783.052 0.018L512 30.14 0.018 542.124l481.86 481.86L993.89 512l30.092-271.038L783.052 0.018z m0.376 283.022c-23.53 0-42.654-19.046-42.684-42.452 0-23.39 19.154-42.438 42.684-42.438 23.532 0 42.656 19.046 42.656 42.454 0 23.388-19.126 42.436-42.656 42.436z" fill="#ED5564" p-id="50219"></path><path d="M30.204 572.31L542.186 60.312 813.24 30.188 783.052 0.018 512 30.14 0.018 542.124l481.858 481.858z" fill="#FFFFFF" opacity=".2" p-id="50220"></path><path d="M783.428 176.824c-35.342 0-63.996 28.544-63.996 63.764 0 35.232 28.654 63.78 63.996 63.78 35.344 0 64-28.546 64-63.78 0-35.218-28.656-63.764-64-63.764z m0 84.872c-11.782 0-21.342-9.468-21.342-21.092 0-11.64 9.56-21.124 21.342-21.124 11.75 0 21.312 9.468 21.312 21.11 0 11.636-9.562 21.106-21.312 21.106z" fill="#DA4453" p-id="50221"></path><path d="M667.088 470.064c-22.154-22.172-51.278-33.094-80.34-32.796 0.282-29.044-10.624-58.186-32.782-80.34-43.748-43.734-114.652-43.734-158.4 0-90.498 90.512-33.936 305.442-33.936 305.442s214.96 56.56 305.458-33.936c43.75-43.75 43.75-114.638 0-158.37z" fill="#F5F7FA" p-id="50222"></path><path d="M636.934 598.278c-71.748 71.748-221.71 51.062-280.772 39.406 3.032 15.438 5.468 24.686 5.468 24.686s214.96 56.56 305.458-33.936c43.75-43.75 43.75-114.636 0-158.37a111.266 111.266 0 0 0-16.53-13.624c29.468 43.56 24.936 103.246-13.624 141.838z" opacity=".1" p-id="50223"></path></svg>